<?xml version="1.0" encoding="UTF-8"?>
<svg id="Camada_2" data-name="Camada 2" xmlns="http://www.w3.org/2000/svg" viewBox="0 0 369.52 1074.94">
  <defs>
    <style>
      .cls-1 {
        fill: #000;
        stroke-width: 0px;
      }
    </style>
  </defs>
  <g id="Camada_1-2" data-name="Camada 1">
    <path class="cls-1" d="M200.53,0c5.09,2.42,10.24,4.73,15.26,7.29,6.76,3.44,13.63,6.74,20.04,10.76,2.69,1.69,4.24,5.15,6.44,7.7,1.21,1.41,2.72,2.56,4.04,3.89,1.52,1.54,3.64,2.89,4.36,4.76,4.49,11.75,5.83,23.99,4.92,36.52-.07,1,.51,2.53,1.29,3.02,6.13,3.85,7.49,11.02,4.32,17.76-2.58,5.47-5.86,9.81-10.38,13.86-2.56,2.29-3.37,7.12-3.92,10.95-.93,6.54.18,13.01,3.47,18.85.7,1.24,2.35,2.61,3.65,2.71,2.79.21,4.38,1.38,4.87,3.98,1.04,5.52,4.35,8.27,9.74,9.85,6.6,1.93,12.98,4.73,19.32,7.47,8.19,3.54,14.77,9.39,21.24,15.4,6.37,5.92,11.66,12.43,14.18,20.95,2.67,9.02,5.67,17.94,8.25,26.98,2.89,10.15,5.55,20.37,8.16,30.6,1.77,6.96,3.1,14.03,4.96,20.97,2.49,9.24,5.32,18.39,7.98,27.58,2.97,10.29,6.01,20.56,8.84,30.88,2.36,8.62,4.73,17.25,6.56,25.98,1.05,5,1.44,10.23,1.42,15.36-.06,12.58-.28,25.18-1,37.74-.22,3.86-2.1,7.67-3.48,11.4-2.52,6.8-4.01,13.76-4.41,21.02-.42,7.64-.47,15.4-1.94,22.86-1.32,6.66-3.53,13.49-8.46,18.56-2.06,2.11-5.61,2.68-8.07,4.51-2.41,1.8-4.76,4.03-6.29,6.58-2.04,3.39-2.95,7.44-4.9,10.89-3.28,5.81-7.03,11.35-10.52,17.05-2.08,3.39-4.34,6.72-5.98,10.33-2.16,4.76-5.67,8.15-9.67,11.25-3.09,2.39-6.25,4.47-7.71,8.72-.89,2.59-4.05,4.39-6.17,6.57-.81.83-1.65,1.66-2.32,2.6-1.89,2.67-4.66,3.78-7.11,1.87-1.3-1.01-2.03-4.41-1.35-6.01,1.77-4.15,4.67-7.8,6.69-11.86,1.02-2.04,1.92-4.77,1.36-6.76-.45-1.62-3.01-3.01-4.92-3.66-.62-.21-2.41,2.06-3.21,3.46-2.32,4.07-4.51,8.22-6.52,12.44-.59,1.24-.54,2.84-.56,4.28-.02,1.46.21,2.93.4,4.39.58,4.53,1.6,9.04,1.72,13.57.21,8.44-1.03,16.52-8.62,22.31,1.02,2.55.81,4.78-1.5,7.51-3.08,3.64-3.62,8.42-2.15,13.25.59,1.93,1,4,1,6.01,0,17.74-.07,35.48-.22,53.21-.02,2.93-.67,5.84-.77,8.77-.16,4.78.17,9.09,2.81,13.76,2.19,3.88.97,9.68,1.28,14.63.15,2.41.22,4.83.57,7.22.33,2.3,1.51,4.57,1.39,6.81-.54,10.28,1.93,19.86,6.1,29.12.17.38.22.89.15,1.31-1.66,10.23.89,20.3,2.23,30.2,1.72,12.75,1.79,25.45,2.2,38.19.23,7.09.03,14.28-.95,21.29-.79,5.68-3.28,11.1-4.57,16.73-1.11,4.84-1.71,9.81-2.33,14.75-.48,3.79-.53,7.62-.96,11.42-.89,7.8-1.65,15.62-2.94,23.36-.99,5.92-2.42,11.81-4.21,17.53-1.48,4.73-3.41,9.42-5.83,13.74-2.82,5.05-3.17,6.41.66,10.82,6.85,7.89,6.72,17.24,5.84,26.76-.3,3.21-.73,6.41-1.29,9.59-1.05,6.01-3.3,11.51-5.81,17.13-1.92,4.29-1.13,10.34-.07,15.29,1.2,5.56,2.43,10.7-.35,16.07-1.06,2.04-1.51,4.39-2.52,6.47-3.04,6.26-9.3,6.91-15,7.77-6.48.98-12.44,3.02-18.28,5.87-5.11,2.49-10.27,4.99-15.64,6.81-17.91,6.06-36.53,5.63-55.05,5.11-4.87-.14-9.86-1.71-14.48-3.46-5.03-1.9-7.38-10.56-4.02-14.75,3.23-4.02,6.9-7.89,11.03-10.94,8.77-6.48,18.39-11.73,25.51-20.41,2.85-3.47,7.81-5.18,10.71-8.63,3.6-4.28,6.29-9.41,8.94-14.4,1.96-3.67,1.65-4.74-.02-12.06-1.87-8.23,2.58-17.48,10.11-21.19.85-.42,1.48-1.28,1.97-1.72-3.35-4.1-6.6-7.84-9.55-11.81-.9-1.21-1.59-3.16-1.32-4.56,1.19-6.02,2.89-11.93,4.19-17.92,2.52-11.67,6.46-22.93,13-32.81,3.66-5.53,2.01-10.57.75-15.34-1.48-5.56-2.58-10.91-1.56-16.51,1.45-7.92,3.27-15.78,4.84-23.68.71-3.6,1.21-7.24,1.79-10.87.89-5.54-2.25-9.63-5.23-13.6-4.27-5.7-5.56-11.15-3.32-18.48,1.99-6.5,1.66-13.85-3.41-19.94-2.6-3.13-5.26-6.61-6.51-10.38-2.88-8.7-5.63-17.46-6.58-26.75-.91-8.86-2.8-17.63-4.41-26.42-1.35-7.36-2.49-14.79-4.47-21.98-2.77-10.07-1.37-20.38-2.65-30.5-.75-5.94-2.17-11.81-3.61-17.63-.59-2.38-2.64-2.29-4.09-.71-5.07,5.52-10.38,10.66-14.06,17.54-3.14,5.87-8.7,10.41-12.96,15.72-3.06,3.81-6.51,7.3-7.37,12.68-.46,2.87-3,5.39-4.53,8.11-1.42,2.55-3.47,5.03-3.96,7.77-1.31,7.25-4.22,13.23-10.38,17.51-.6.42-.71,1.9-.65,2.86.32,5.28,1.08,10.44-4.57,14.03-1.5.95-2.37,4.2-2.15,6.24.32,2.94,2.09,5.69,2.88,8.62.6,2.2,1.53,4.94.74,6.75-1.22,2.78-1.61,4.48.28,7.29,1.38,2.05,1.12,5.38,1.14,8.14.03,3.84.42,6.92,3.55,10.12,2.61,2.67,3.47,7.34,4.41,11.29,1.05,4.39,1.14,9,1.95,13.47,1.22,6.76,2.9,13.45,4.03,20.23,1.49,8.96,2.56,17.99,3.95,26.96,1.42,9.12,2.26,18.43,4.75,27.27,2.04,7.22,3.03,14.12,1.43,21.37-.31,1.42-1.27,2.68-1.76,4.08-2.21,6.27-.51,12.03,4.71,15.84,2.09,1.52,4.23,3.01,6.47,4.28,4.75,2.69,5.84,7.33,5.58,12-.35,6.38-1.88,12.68-2.35,19.06-.2,2.65,1.58,5.42,1.5,8.1-.39,13.89-.64,27.8-1.84,41.63-.74,8.57-9.34,14.97-18.07,14.97-4.89,0-9.8.21-14.68-.08-5.76-.34-11.62-2.14-17.22-1.48-10.22,1.21-20.28,3.79-30.42,5.74-2.58.5-5.2.96-7.82,1.1-12.51.68-25.04,1.81-37.54,1.6-6.11-.1-12.23-2.59-18.25-4.34-3.24-.95-4.75-3.44-4.66-7.06.15-6.31,1.66-12.91,9.68-15.6,5.54-1.85,11.3-3,16.88-4.75,8.07-2.53,16.23-4.86,22.7-10.94,3.02-2.84,6.46-5.42,10.11-7.36,7.63-4.05,11.84-10.8,15.76-18.01,1.42-2.61,3.51-4.85,4.62-6.35-.76-4.09-1.65-7.28-1.89-10.52-.3-3.99.34-8.07-.17-12.01-.7-5.38-.84-10.97-5.28-15.32-1.59-1.55-2-4.5-2.55-6.91-3.08-13.54-6.03-27.1-9.04-40.65-1.14-5.14-2.53-10.24-3.47-15.42-1.64-8.98-2.55-18.11-4.65-26.96-1.59-6.7-5.17-12.92-6.79-19.61-2.1-8.7-2.68-17.76-4.78-26.46-1.21-5.04-4.31-9.6-6.17-14.52-1.21-3.21-1.74-6.69-2.56-10.05-.07-.28-.05-.6,0-.89,1.47-9.66-2.07-18.81-2.9-28.24-.73-8.23,1.5-15.85,4.8-23.22,2.18-4.88,5.1-9.47,6.86-14.48,2.27-6.47,3.66-13.24,5.51-19.85,2.93-10.5,5.93-20.98,8.9-31.47,2.67-9.46,5.29-18.92,8-28.37,2.93-10.25,5.88-20.5,8.92-30.73,2.59-8.72,5.24-17.42,8.01-26.08,2.57-8.02,3.9-16.94,8.41-23.7,4.39-6.59,6.94-13.87,10.75-20.6,2.54-4.5,2.95-10.15,4.94-15.03,1.78-4.37,4.58-8.32,6.6-12.61,1.09-2.33,1.74-4.95,2.14-7.51.98-6.27,2.89-12.15,6.38-17.48.72-1.1,2.04-2.44,1.84-3.42-1.24-6.03,4.5-8.22,6.38-12.45.42-.93-.33-2.44-.68-3.65-.72-2.49-2.01-4.91-2.2-7.42-.58-7.7-.68-15.44-1.1-23.15-.38-7.1,1.44-13.66,3.59-20.37,1.79-5.58,2.07-11.7,2.54-17.62.51-6.55-.31-13.29.85-19.69,1.69-9.36,3.58-18.94,1.73-28.06-2.85-14.02-2.21-27.99-2.27-42.01-.03-7.75,2.87-14.96,5.9-22.03.68-1.58.78-3.4,1.24-5.08,1.85-6.71,3.32-13.56,5.73-20.05,2.35-6.31,5.24-12.52,8.73-18.26,2.39-3.92,3.76-7.6,3.27-12.14-.72-6.67-1.12-13.38-1.87-20.05-.21-1.88-1.37-3.64-1.7-5.53-1.2-6.86,2.28-12.88,8.92-16.43,5.01-2.68,9.98-5.52,14.61-8.79,1.16-.82,1.34-3.6,1.31-5.47-.14-7.46-.07-14.97-1.08-22.33-.45-3.24-3.27-6.16-5.08-9.2-.62-1.04-1.72-1.89-2.06-2.99-.94-3.14-3.35-4.51-5.83-6.33-6.16-4.52-11.54-9.97-12.55-18.12-.48-3.85.48-7.39,3.52-10.25.77-.72,1.16-2.6.81-3.63-3.94-11.75-4.92-23.88-2.39-35.8,2.05-9.64,5.03-19.23,14.71-25.08,6.45-3.89,11.74-9.65,18-13.93C188.27,3.08,192.82,1.82,196.97,0c1.19,0,2.37,0,3.56,0ZM278.66,512.43c.58.09,1.15.17,1.73.26,1.9-4.5,3.67-9.06,5.74-13.49,4.6-9.83,9.39-19.56,13.98-29.39.32-.68-.09-2.05-.62-2.72-2.7-3.41-2.59-6.61-.25-9.9.84-1.17.46-3.32.4-5.01-.07-2.09-1.24-4.6-.46-6.19,2.35-4.75,5.57-9.07,8.13-13.73.64-1.16.64-3.29,0-4.44-4.64-8.27-7.62-17.09-8.76-26.45-.77-6.34-.95-12.75-1.39-19.13-2.86,5.78-5.21,11.76-6.71,17.95-1.42,5.81-1.76,11.86-2.9,17.75-1.9,9.82-4.16,19.57-6.05,29.4-1.1,5.69-1.7,11.48-8.16,14.01-.66.26-1.6,1.19-1.54,1.72.47,4.34,1.1,8.66,1.78,12.98,1.11,7.03,2.39,14.02,3.4,21.06.73,5.09,1.14,10.22,1.69,15.33Z"/>
  </g>
</svg>