<?xml version="1.0" encoding="UTF-8"?>
<svg id="Camada_2" data-name="Camada 2" xmlns="http://www.w3.org/2000/svg" viewBox="0 0 314.9 1043.08">
  <defs>
    <style>
      .cls-1 {
        fill: #000;
        stroke-width: 0px;
      }
    </style>
  </defs>
  <g id="Camada_1-2" data-name="Camada 1">
    <path class="cls-1" d="M101.87,431.81c-3.25-1.02-6.53-2.24-9.9-3.08-8.48-2.11-15.13-7.09-21.57-12.74-4.78-4.19-10.37-7.44-15.37-11.4-6.15-4.87-12.23-9.84-18.02-15.12-9.39-8.56-18.62-17.29-27.71-26.15-7.21-7.03-12.81-18.63-6.66-30.39,2.74-5.24,4.07-11.22,6.7-16.54,2.78-5.64,6.52-10.79,9.51-16.33,3.2-5.93,5.93-12.12,9.02-18.11,4.03-7.82,8.38-15.49,12.27-23.38,1.99-4.05,3.97-8.32,4.74-12.71,1.81-10.36,6.39-19.39,11.4-28.43,3.01-5.43,5.22-11.4,7.13-17.34,3.12-9.7,4.52-19.95,9.72-28.99,1.76-3.06,2.88-6.48,4.49-9.63.5-.99,1.65-1.65,2.54-2.43,1.75-1.52,4.07-2.68,5.18-4.57,3.78-6.45,7.27-13.09,10.61-19.79,2.42-4.85,4.62-9.83,6.61-14.88,2.02-5.11,3.68-10.36,5.46-15.56.22-.64.21-1.36.37-2.42-1.95,1.4-3.57,2.57-5.2,3.74,7.06-9.07,10.98-19.28,12.55-30.52-1.49,3.43-2.99,6.87-4.48,10.3-.29-.07-.57-.15-.86-.22.77-2.64,1.36-5.35,2.34-7.91,2.86-7.39,5.74-14.79,8.9-22.05,1.78-4.09,4.07-7.98,6.27-11.88,4.34-7.7,8.06-15.89,13.34-22.89,6.89-9.14,15.28-17.41,27.24-19.26,8.84-1.37,18.08-2.75,26.09,3.89,2.56,2.12,5.95,3.29,9.04,4.72,8.24,3.83,12.52,11.03,16.24,18.78,3.34,6.96,6.84,13.85,10.25,20.78.38.77.68,1.58.91,2.41,2.17,7.69,3.8,15.59,6.59,23.05,4.2,11.22,9.19,22.14,13.87,33.18,3.52,8.32,7.16,16.59,10.6,24.95,2.51,6.1,4.67,12.34,7.24,18.41.8,1.88,2.46,3.38,3.7,5.08,2.76,3.8,4.32,8.08,3.98,12.76-.51,7.03,3.34,12.41,6.22,18.19.62,1.24,1.28,2.47,1.73,3.78,1.24,3.57,2.63,7.11,3.47,10.78.9,3.92,1.2,7.97,1.84,11.96.43,2.7,1.01,5.38,1.52,8.06.41,0,.81-.02,1.22-.02-1.53,2.26-2.95,4.61-4.61,6.77-2.58,3.34-1.86,6.46-.52,10.16,1.4,3.86,1.42,8.21,2.38,12.26,2.19,9.2,4.9,18.29,6.78,27.56,1.23,6.09,1.31,12.41,2.04,18.61,1,8.53,2.38,17.02,3.14,25.57.56,6.35.5,12.76.54,19.14.05,6.79.09,13.6-.23,20.38-.37,8-.47,16.09-1.88,23.93-2.01,11.11-4.9,22.07-7.83,32.98-2.58,9.57-5.45,19.08-8.75,28.43-1.94,5.52-3.47,10.77-1.76,16.62,1.7,5.84,2.65,11.94,4.7,17.65,2.32,6.45,6.18,12.38,8.16,18.9,3.29,10.85,5.71,21.96,8.3,33.01,1.66,7.06,2.84,14.24,4.44,21.32,1.77,7.81,3.8,15.57,5.67,23.36.51,2.11.98,4.23,1.27,6.37.52,3.82-2.03,7.76-6.81,9.51-5.71,2.08-11.64,3.54-17.43,5.41-2.64.86-5.22,1.95-7.7,3.2-.71.36-1.28,1.6-1.37,2.49-.42,4.05-.61,8.13-.96,12.19-.81,9.36-1.69,18.71-2.48,28.08-.41,4.94-.93,9.89-.97,14.84-.14,14.91-.31,29.84.02,44.74.2,8.97-1.62,17.52-5,25.55-1.95,4.63-5.95,8.43-9.14,12.51-6.06,7.73-12.36,15.28-18.21,23.17-1.85,2.5-2.65,5.8-3.79,8.79-3.33,8.72-6.35,17.56-9.94,26.17-4.07,9.75-8.65,19.3-12.95,28.95-4.12,9.24-8.22,18.49-12.26,27.76-4.7,10.77-9.78,21.4-13.85,32.41-3.1,8.38-5.2,17.19-7.17,25.93-1.4,6.22-2.35,12.64-2.61,19-.28,6.98.04,14.06.89,20.99.6,4.91,2.59,9.64,3.81,14.49.8,3.16,1.48,6.36,1.98,9.57,1.17,7.61,6.92,10.91,12.77,14.39,4.27,2.53,8.48,5.34,12.1,8.69,1.91,1.76,3.61,5.03,3.43,7.48-.25,3.39-3.49,4.59-7.02,4.76-1.99.1-3.93,1.31-6,2.05,2.72,4.84,5.38,9.58,8.07,14.31,1.42,2.49.61,7.2-1.93,8.44-2.42,1.18-5.24,2.45-7.8,2.28-8.99-.6-17.95-1.76-26.91-2.79-2.43-.28-4.87-.67-7.21-1.33-3.46-.96-7.1-1.76-10.17-3.49-2.09-1.18-3.73-3.65-4.9-5.9-2.28-4.36-4.08-8.96-6.36-14.11-1.09,2.31-2.03,4.28-3.12,6.6-1.54,0-3.35.3-5-.1-1.15-.28-2.83-1.4-2.96-2.33-.85-6.21-1.56-12.46-1.85-18.72-.12-2.6,1.38-5.28,1.29-7.89-.12-3.64-1.04-7.25-2.29-10.83-.36,5.05-.66,10.12-1.13,15.16-.17,1.89.25,4.25-2.91,4.47-2.83.19-4.93-.31-5.27-3.57-.18-1.73-.37-3.48-.37-5.22-.03-11.17-.28-22.34.11-33.49.17-4.85-2.31-8.07-5.42-10.45-3.16-2.42-3.52-5.35-3.02-8.34.97-5.83,2.49-11.59,4.1-17.3.36-1.29,1.91-3.01,3.08-3.16,6.19-.79,7.42-6.61,10.7-10.24,3.32-3.67,4.66-8.07,2.77-13.13-3.58-9.59-7.2-19.18-10.42-28.9-2.41-7.29-4.51-14.71-6.22-22.19-1.83-8.04-3.18-16.2-4.49-24.35-1.08-6.73-1.91-13.51-2.6-20.3-.52-5.23-.55-10.5-.97-15.74-.47-5.83-1.6-11.65-1.59-17.48.01-5.99,1.25-11.97,1.62-17.98.75-12.09,1.61-24.19,1.79-36.29.16-10.38-.25-20.79-1.01-31.14-.63-8.57-2.21-17.07-3.21-25.62-.54-4.63-.8-9.29-1.06-13.95-.37-6.56-.35-13.15-.97-19.68-.86-9.15-2.17-18.26-3.26-27.39-.14-1.16-.28-2.35-.17-3.5.34-3.47-.52-5.58-4.4-6.65-6.44-1.77-12.75-4.12-18.96-6.62-1.66-.67-3.01-2.6-4.06-4.24-1.52-2.4-2.7-4.77-6.25-4.29-3.86.52-5.62-1.33-6.71-5.26-2.64-9.47-2.13-18.23,2.09-27.29,2.84-6.11,3.77-13.09,5.75-19.63,2.2-7.28,4.7-14.47,6.91-21.74,1.09-3.57,1.77-7.27,2.72-10.88,2.41-9.18,4.31-18.56,7.51-27.46,2.1-5.83,6.2-10.93,9.25-16.43,1.64-2.95,2.96-6.08,4.89-10.11ZM114.74,312.49c.29-7.37-2.04-13.9-5.71-20.12-2.23-3.77-4.34-7.63-6.28-11.57-1.81-3.67-2.94-7.73-5.07-11.17-1.46-2.35-2.43-6.77-6.88-4.82-1.99.88-3.83,2.49-5.28,4.17-5.27,6.12-9.93,12.84-15.62,18.53-7.01,7.02-10.69,15.98-15.64,24.19-4.21,6.98-7.83,14.31-11.82,21.42-2.88,5.15-2.57,10.01,1.36,15.1,4.28,5.54,9.3,10.62,12.77,16.62,3.49,6.04,7.97,10.97,13.19,15.17,6.99,5.62,14.47,10.65,21.84,15.8,3.68,2.57,6.26,1.4,8.07-2.72,1.79-4.07,3.56-8.36,6.35-11.71,3.3-3.98,7.69-7.05,11.59-10.54.49-.43,1.13-.93,1.25-1.49.62-3.03,2.1-5.01,5.18-6.18,2.8-1.07,3.83-5.45,2.14-7.51-2.32-2.81-4.36-6.04-7.2-8.18-6.33-4.78-7.59-10.85-6.32-18.19.96-5.56,1.41-11.2,2.09-16.81ZM167.56,798.95c.31.05.62.1.93.14,1.35-4.4,2.99-8.73,3.98-13.21,3.17-14.25,10-26.87,17.14-39.35,1.94-3.39,4.26-6.56,6.37-9.86,2.21-3.46,5.5-6.7,6.31-10.47,1.88-8.7,2.67-17.65,3.65-26.53.4-3.63-.2-7.37.2-11,1.39-12.85-.38-25.47-2.46-38.06-1.33-8.01-3.33-15.91-4.64-23.92-1.3-7.97-3.23-9.94-11.24-10.2-3.32-.11-5.17.92-4.9,4.75.72,9.92,1.21,19.85,1.81,29.78.14,2.34.53,4.67.49,7.01-.13,6.87-.06,13.78-.75,20.6-.6,5.94-2.28,11.75-3.23,17.66-1.05,6.52-1.73,13.1-2.75,19.62-.26,1.68-.83,3.51-1.84,4.83-6.34,8.34-9.68,17.97-10.22,28.15-.71,13.4-.26,26.87-.11,40.31.03,3.25.82,6.49,1.26,9.73ZM263.48,308.8c1.14,13.53,2.28,27.06,3.43,40.59,6.6-14.01.64-27.1-3.43-40.59Z"/>
  </g>
</svg>